<svg width="13" height="18" viewBox="0 0 13 18" fill="none" xmlns="http://www.w3.org/2000/svg">
<path fill-rule="evenodd" clip-rule="evenodd" d="M10.5238 6.04387H11.3333C12.2238 6.04387 12.9524 6.77712 12.9524 7.67331V15.8205C12.9524 16.7167 12.2238 17.45 11.3333 17.45H1.61905C0.728572 17.45 0 16.7167 0 15.8205V7.67331C0 6.77712 0.728572 6.04387 1.61905 6.04387H2.42857V4.41443C2.42857 2.1658 4.24191 0.34082 6.4762 0.34082C8.71048 0.34082 10.5238 2.1658 10.5238 4.41443V6.04387ZM6.47644 1.97036C5.13262 1.97036 4.04785 3.0621 4.04785 4.41456V6.04403H8.90503V4.41456C8.90503 3.0621 7.82026 1.97036 6.47644 1.97036ZM11.3334 15.8205H1.61914V7.67322H11.3334V15.8205ZM8.09503 11.7468C8.09503 12.643 7.36646 13.3763 6.47598 13.3763C5.58551 13.3763 4.85693 12.643 4.85693 11.7468C4.85693 10.8506 5.58551 10.1174 6.47598 10.1174C7.36646 10.1174 8.09503 10.8506 8.09503 11.7468Z" fill="black" fill-opacity="0.8"/>
</svg>
