<svg width="36" height="36" viewBox="0 0 36 36" fill="none" xmlns="http://www.w3.org/2000/svg">
<rect width="36" height="36" fill="#FF9100"/>
<path fill-rule="evenodd" clip-rule="evenodd" d="M18 8C12.48 8 8 12.48 8 18C8 23.52 12.48 28 18 28C23.52 28 28 23.52 28 18C28 12.48 23.52 8 18 8ZM10 18C10 17.39 10.08 16.79 10.21 16.22L14.99 21V22C14.99 23.1 15.89 24 16.99 24V25.93C13.06 25.43 10 22.07 10 18ZM21.99 22C22.89 22 23.63 22.59 23.89 23.4C25.19 21.98 26 20.08 26 18C26 14.65 23.92 11.77 20.99 10.59V11C20.99 12.1 20.09 13 18.99 13H16.99V15C16.99 15.55 16.54 16 15.99 16H13.99V18H19.99C20.54 18 20.99 18.45 20.99 19V22H21.99Z" fill="white"/>
</svg>
