<svg version="1.1" xmlns="http://www.w3.org/2000/svg" xmlns:xlink="http://www.w3.org/1999/xlink" x="0px" y="0px" viewBox="0 0 1000 1000" enable-background="new 0 0 1000 1000" xml:space="preserve">
        <g><g><g><path d="M973.2,415.4c-9.3,0-16.9,9.5-16.9,21.2c0,32.5,0,94.3,0,126.7c0,11.7,7.6,21.2,16.9,21.2c9.3,0,16.8-9.5,16.8-21.2c0-32.5,0-94.2,0-126.8C990,424.9,982.5,415.4,973.2,415.4z"/><path d="M26.9,415.4c-9.3,0-16.9,9.5-16.9,21.2c0,32.5,0,94.2,0,126.7c0,11.7,7.6,21.2,16.9,21.3c9.3,0,16.8-9.5,16.8-21.2c0-32.5,0-94.2,0-126.8C43.8,424.9,36.2,415.4,26.9,415.4z"/><path d="M234.5,223.3c-31.1,0-56.3,28.5-56.3,63.6c0,106.5,0,319.7,0,426.2c0,35.1,25.2,63.6,56.2,63.6s56.3-28.5,56.3-63.6c0-41.8,0-100,0-161.8c32.4,0,322.8,0,409.4,0c0,61.8,0,120,0,161.8c0,35.1,25.2,63.6,56.3,63.6c31.1,0,56.2-28.5,56.2-63.6c0-106.5,0-319.7,0-426.2c0-35.2-25.2-63.6-56.2-63.6c-31.1,0-56.3,28.5-56.3,63.6c0,41.8,0,100,0,161.8c-86.6,0-376.9,0-409.4,0c0-61.8,0-120,0-161.8C290.8,251.7,265.6,223.3,234.5,223.3z"/><path d="M887.2,308.3c-1.8,0-3.7,0-5.5,0c-23.4,0-42.4,18.9-42.4,42.4c0,73.8,0,224.9,0,298.7c0,23.4,19,42.4,42.4,42.4c1.8,0,3.7,0,5.5,0c23.4,0,42.4-18.9,42.4-42.4c0-73.8,0-224.9,0-298.7C929.7,327.2,910.6,308.3,887.2,308.3z"/><path d="M112.1,308.3c-1.8,0-3.7,0-5.5,0c-23.4,0-42.4,18.9-42.4,42.4c0,73.8,0,224.9,0,298.7c0,23.4,19,42.4,42.4,42.4c1.8,0,3.7,0,5.5,0c23.4,0,42.4-18.9,42.4-42.4c0-73.8,0-224.9,0-298.7C154.5,327.2,135.6,308.3,112.1,308.3z"/></g></g><g></g><g></g><g></g><g></g><g></g><g></g><g></g><g></g><g></g><g></g><g></g><g></g><g></g><g></g><g></g></g>
</svg>
